<svg width="64" height="43" viewBox="0 0 64 43" fill="none" xmlns="http://www.w3.org/2000/svg">
<path fill-rule="evenodd" clip-rule="evenodd" d="M60 0.5H4C1.8 0.5 0 2.3 0 4.5V38.5C0 40.7 1.8 42.5 4 42.5H60C62.2 42.5 64 40.7 64 38.5V4.5C64 2.3 62.2 0.5 60 0.5Z" fill="#3498D8"/>
<path fill-rule="evenodd" clip-rule="evenodd" d="M13.3998 22.1H16.5998L14.9998 18.1L13.3998 22.1ZM57.9998 14.5H49.7998L47.7998 16.7L45.9998 14.5H28.5998L26.9998 18.1L25.3998 14.5H18.3998V16.1L17.5998 14.5H11.5998L5.7998 28.5H12.7998L13.5998 26.3H15.5998L16.3998 28.5H24.1998V26.9L24.7998 28.5H28.7998L29.3998 26.7V28.5H45.3998L47.3998 26.3L49.1998 28.5H57.3998L52.1998 21.5L57.9998 14.5ZM33.7998 26.5H31.5998V18.7L28.1998 26.5H26.1998L22.7998 18.7V26.5H18.1998L17.3998 24.3H12.5998L11.7998 26.5H9.19981L13.3998 16.5H16.7998L20.5998 25.9V16.5H24.3998L27.3998 23.3L30.1998 16.5H33.9998V26.5H33.7998ZM53.5998 26.5H50.5998L47.9998 23.1L44.9998 26.5H35.9998V16.5H45.1998L47.9998 19.7L50.9998 16.5H53.7998L49.3998 21.5L53.5998 26.5ZM38.1998 18.5V20.3H43.1998V22.3H38.1998V24.3H43.7998L46.3998 21.3L43.9998 18.5H38.1998Z" fill="white"/>
</svg>
