<svg width="264" height="171" viewBox="0 0 264 171" fill="none" xmlns="http://www.w3.org/2000/svg">
<path d="M16.5703 0.70459H247.154C247.154 0.70459 262.418 1.70059 263.141 16.6826V154.815C263.141 154.815 264.132 169.511 249.436 170.225L16.5713 170.793C16.5713 170.793 0.592285 171.939 0.592285 154.815L1.15228 16.6826C1.15128 16.6826 -0.407711 3.41359 16.5703 0.70459V0.70459Z" fill="#5FD4AF"/>
<path d="M63.2234 29.5457C63.9714 28.5457 65.4244 28.9857 64.6894 26.3537C64.0734 26.4307 63.4624 26.5207 62.8434 26.6057C61.6294 27.9047 63.5354 26.9137 61.8684 27.5807C61.8054 28.9307 62.7024 28.4047 63.2234 29.5457V29.5457ZM62.7234 31.7557C63.2024 32.0247 62.5744 33.4437 64.4414 32.2427C63.7414 30.9267 63.2024 32.0247 62.7234 31.7557ZM56.4634 25.9777C58.3304 25.9567 59.4724 25.0457 61.3734 25.4947C59.2964 22.6407 58.2284 23.0927 55.2454 24.5167C54.1594 26.9097 55.9544 24.8797 56.4634 25.9777V25.9777ZM58.9204 21.9347C59.3264 20.1827 58.2454 21.9987 57.4414 21.3237C57.8904 21.7167 56.2874 23.3967 58.9204 21.9347ZM84.5144 55.6617C86.1384 56.1957 87.2024 56.5377 87.7574 56.5757C88.5824 53.2977 87.2914 53.5717 85.8564 53.1397C85.4414 54.4257 84.3644 53.8667 84.5144 55.6617V55.6617ZM63.2234 20.9517C62.4924 22.0117 64.9454 21.5027 65.0604 21.4427C63.9324 20.4387 63.7574 20.2037 62.3514 19.4767C61.2414 20.5637 62.9714 21.2937 63.2234 20.9517ZM63.3394 23.7767C63.3564 23.4947 61.0354 24.0927 65.1764 24.7637C65.7024 21.9217 64.0824 24.3107 63.3394 23.7767ZM66.7794 24.3967C67.1684 25.1267 67.5954 25.9177 66.7794 24.3967V24.3967ZM66.2794 21.0807C67.0704 20.8547 67.3734 22.7947 67.9974 20.7047C66.5184 18.7517 66.8604 20.9047 66.2794 21.0807ZM67.1424 18.2507C65.4544 18.9867 65.8814 18.8027 67.1424 18.2507V18.2507ZM39.8354 53.4907C40.1474 54.7597 41.1214 54.2937 41.5274 54.6147C40.6724 53.9517 40.9464 52.8327 39.8354 53.4907ZM85.2414 140.302C84.6984 141.392 83.8094 140.204 83.9034 142.08C86.4754 141.69 85.0354 140.733 85.2414 140.302ZM43.0184 32.2727C43.0224 32.2727 43.0224 32.2727 43.0224 32.2727C43.4494 32.0467 43.8554 31.7947 44.2444 31.4697C43.8314 31.7427 43.4204 32.0077 43.0184 32.2727ZM89.3224 97.9817C89.9334 97.9007 89.8004 96.8537 89.5364 96.5967C89.2674 96.9217 87.8394 97.6307 87.3564 98.0707C91.5964 91.3697 73.1644 82.2587 70.0794 90.0877C65.4004 89.6387 62.2204 82.5837 63.2124 79.0407C53.5204 87.1047 55.0804 67.8057 62.3534 72.5967C64.8534 70.3617 67.5374 72.7847 68.5414 76.6737C66.5504 69.0757 75.1484 59.2637 81.4344 56.6487C81.2934 56.9687 79.7934 59.4137 79.8494 59.3407C81.0334 58.7807 82.1654 57.8327 83.3364 57.1957C81.8194 56.1317 81.5334 54.9347 81.1314 54.4947C79.7814 54.4607 79.4304 54.6357 77.9394 55.0497C81.3624 52.6527 86.6314 53.8367 87.0204 49.5237C86.2214 49.7587 85.2684 49.9297 84.5164 49.8187C84.6104 49.7207 86.4904 49.2077 86.1664 48.4167C84.4404 47.4077 83.4104 45.6947 82.5384 42.8957C78.5254 47.4727 78.9744 37.0707 74.1364 42.5837C72.8544 44.0367 71.2854 58.7457 70.1454 48.2927C57.0254 45.1947 69.8504 40.3007 67.6364 36.2587C70.8584 36.8477 73.3244 35.6517 73.0934 32.2157C72.0464 32.9727 70.4994 33.4427 69.4694 34.8527C69.2554 33.8737 69.7944 33.5367 69.1014 32.5797C68.8364 32.9087 68.5754 33.2287 68.3024 33.5667C67.6354 31.9777 67.2334 31.0327 66.5334 29.6907C66.5204 29.7377 64.7814 31.2677 64.5594 31.3577C67.3964 37.4687 46.2174 31.0627 43.0254 32.2717C36.9574 35.4467 27.4354 29.3447 20.2474 33.9217C21.4394 34.4947 22.3974 35.2807 23.6834 35.7717C21.1274 35.6697 20.3804 36.6007 18.4014 36.8747C19.7564 37.2207 20.4524 37.8577 22.3334 38.1017C19.5474 39.5927 16.1584 42.1487 19.5174 42.6527C20.1884 43.3327 18.7694 44.1487 19.2654 44.9777C20.1634 45.0287 20.7484 44.4987 21.6034 44.6057C20.3594 45.6657 17.8514 48.4647 15.9404 49.3957C21.4404 48.7377 24.5174 44.1817 28.0434 42.1007C27.1244 43.1907 26.5004 43.3397 26.0134 44.2417C33.4444 38.2627 39.9274 49.2077 42.0984 55.9677C41.5724 55.8777 41.5254 55.2367 40.7484 55.1597C39.6334 63.4717 40.9834 71.9497 48.0514 77.9417C46.7224 75.5147 45.8594 72.6597 44.7394 70.3307C50.3674 78.2447 52.5894 80.6897 61.6494 85.5107C70.7304 90.3227 66.2564 91.9887 67.6284 100.028C66.3124 101.097 74.5554 113.712 74.7474 118.02C75.1154 125.909 70.6404 137.866 77.8884 143.917C80.1834 138.977 79.8544 135.195 80.2134 130.635C82.8504 130.041 85.3204 128.31 84.4144 125.139C87.9274 124.126 86.0944 125.335 88.2564 121.489C88.9654 121.959 88.3544 121.831 88.4354 122.587C91.4994 114.792 99.3544 109.459 99.2734 100.643C96.0224 98.6867 93.0574 96.8107 89.3224 97.9817V97.9817ZM65.4464 61.6527C64.4254 57.7637 65.0364 57.7637 66.5494 57.9087C66.2884 58.8787 65.6764 60.6697 65.4464 61.6527ZM64.1724 55.1607C66.0144 54.8697 67.9844 55.4937 69.8304 58.4517C69.4324 58.9047 69.2624 58.7377 68.8434 59.8707C68.5354 59.0757 68.0694 59.4517 67.5484 59.5667C66.9114 55.9047 65.6034 55.7507 62.7584 56.6137C62.8694 55.9427 63.4504 55.4947 64.1724 55.1607ZM61.1084 52.9987C58.8304 52.6777 59.7624 51.3877 59.2714 49.4297C59.5104 50.1657 60.4764 51.8837 61.1084 52.9987ZM69.3474 37.6447C68.9074 37.4097 69.7574 39.4477 69.9714 39.6057C70.5574 39.1567 71.5614 38.6867 72.0524 38.2597C71.0574 36.4007 70.3564 38.1747 69.3474 37.6447V37.6447ZM80.1254 143.041C79.9674 143.486 78.6424 142.148 78.4674 143.956C81.9034 145.485 79.8224 143.887 80.1254 143.041ZM23.9294 46.2087C25.2884 46.8147 24.0834 46.2767 23.9294 46.2087V46.2087ZM54.0104 23.0457C55.2924 24.3497 55.2114 22.0417 55.1134 21.6867C53.4084 22.4687 52.0274 23.2297 50.9424 24.0247C52.8694 24.7597 52.6304 23.4567 54.0104 23.0457V23.0457ZM66.8944 28.0717C67.0314 27.8447 68.8174 27.3107 69.2314 26.6057C65.4714 26.9857 66.8354 28.3667 66.8944 28.0717ZM54.1344 27.4607C50.4244 23.9567 47.1044 26.5077 48.8524 30.1617C50.6474 29.6097 52.4894 28.3197 54.1344 27.4607V27.4607ZM51.9204 31.3787C55.4504 33.4387 62.8344 33.3617 60.3864 30.0327C59.8814 29.1057 59.4584 28.7247 60.0314 27.7077C58.2454 28.1307 58.9974 27.0707 58.1814 29.0577C56.0954 27.2717 53.7534 27.9037 51.6814 30.0317C52.5404 30.2027 53.3994 30.3567 54.2494 30.5227C53.6984 30.9437 52.1944 30.5377 51.9204 31.3787V31.3787ZM56.9544 20.7047C57.7664 20.7047 58.6804 20.2047 59.4074 20.2137C58.3824 20.2037 58.0444 18.6697 56.9544 20.7047ZM158.501 30.0077C156.022 26.3797 160.689 23.8797 164.574 23.0117C159.894 22.6017 153.63 25.2127 156.288 30.5027C156.526 30.1397 157.983 30.9437 158.501 30.0077ZM177.77 18.5337C178.15 17.2177 180.026 18.9017 179.607 16.5717C176.017 16.1017 178.06 17.5337 177.77 18.5337ZM178.932 18.6577C179.235 18.7007 180.389 20.0897 181.949 19.6447C181.282 17.2857 180.462 18.8747 178.932 18.6577ZM159.291 30.5677C159.757 32.0887 159.441 31.0457 159.291 30.5677V30.5677ZM132.261 19.9087C132.629 21.3147 133.176 21.6017 133.744 22.8487C133.625 22.8917 134.799 20.7117 134.971 20.5197C136.915 21.7677 135.697 21.5797 137.8 21.0107C134.385 17.6607 130.847 17.3867 130.057 20.2717C130.603 20.7647 131.902 20.0677 132.261 19.9087V19.9087ZM153.774 32.7127C153.556 32.0377 153.338 31.3707 153.774 32.7127V32.7127ZM137.176 19.2987C137.744 18.6327 138.962 18.5807 139.638 17.6917C138.138 17.5337 136.578 17.4647 135.087 17.5757C135.167 19.5207 136.479 18.2257 137.176 19.2987ZM212.359 24.1567C212.376 24.3617 212.453 25.0677 212.44 25.0457C212.406 24.5247 212.367 24.2647 212.359 24.1567ZM73.8944 25.3667C74.7744 25.3417 75.8814 26.6617 75.6124 25.1877C75.3344 23.6237 68.7874 23.0807 67.8774 23.1617C69.4204 25.9607 71.0224 25.6187 73.8944 25.3667V25.3667ZM235.278 30.0717C234.748 29.7727 235.329 28.1867 233.688 29.5207C233.299 31.1787 234.465 29.6057 235.278 30.0717ZM207.543 25.2817C208.436 24.8967 209.111 25.0857 210.056 24.6187C207.843 23.6957 207.829 23.6147 205.458 23.6357C205.406 25.6187 206.641 24.4267 207.543 25.2817V25.2817ZM183.731 20.8027C183.68 20.0937 185.744 19.8117 183.487 18.7897C181.231 20.4907 183.688 20.2037 183.731 20.8027ZM118.022 29.7257C118.095 30.5117 118.202 31.7807 118.022 29.7257V29.7257ZM118.697 45.2597C119.792 44.2257 119.001 44.9777 118.697 45.2597V45.2597ZM135.206 32.0587C135.171 31.2677 135.184 31.5377 135.206 32.0587V32.0587ZM81.8734 30.6527C79.3694 28.4007 76.9974 27.5157 74.5064 28.8067C74.6304 28.0717 74.7504 27.3367 74.8864 26.6057C73.0234 27.1657 72.5794 27.4777 71.3184 28.3197C71.4854 27.6997 71.6474 27.0887 71.8054 26.4737C64.5744 32.9097 86.8484 32.6017 74.6304 37.6447C76.7204 38.5377 78.9984 39.7467 81.6304 40.7167C81.3434 40.0627 81.0624 39.4007 80.7674 38.7507C81.3444 39.1187 81.9124 39.4817 82.4894 39.8447C81.9554 38.1737 82.1264 37.0117 81.5064 35.4347C82.5444 35.8367 83.1004 36.3277 84.0834 37.2807C84.2454 34.8757 83.3904 32.9007 81.8734 30.6527V30.6527ZM69.4844 19.1147C75.2704 21.6957 69.6984 13.9227 69.4844 19.1147V19.1147ZM78.0744 16.7817C78.0914 16.7687 76.4294 18.4017 76.0824 18.9017C75.2704 19.0427 74.6254 18.3507 74.0274 18.3717C72.6724 20.1627 72.9844 20.6277 70.8264 22.1797C76.8994 26.1587 82.4244 16.9957 88.1384 14.9357C83.6644 13.7947 73.0144 13.6157 73.1644 17.2777C75.0014 17.1567 76.1084 17.9567 78.0744 16.7817V16.7817ZM133.8 32.1227C134.065 32.1317 135.206 32.1607 133.8 32.1227V32.1227ZM119.928 46.1097C120.373 47.3367 119.552 48.0547 121.83 48.8237C120.228 51.0457 121.215 49.8967 121.339 51.3917C121.194 51.6997 120.219 52.7167 119.929 53.1177C128.043 52.2127 121.291 42.9987 119.928 46.1097V46.1097ZM132.261 32.4867C133.176 32.1577 133.308 32.1147 132.261 32.4867V32.4867ZM122.748 42.8707C121.997 41.1567 122.637 42.6097 122.748 42.8707V42.8707ZM122.078 43.6657C121.543 43.8317 121.492 43.8447 122.078 43.6657V43.6657ZM116.676 50.4777C121.043 50.5967 118.873 45.7427 116.676 50.4777V50.4777ZM220.961 58.1437C219.991 57.8017 219.474 57.4217 219.303 56.3107C219.17 57.2717 218.491 58.8747 218.44 59.8667C218.803 59.9687 220.829 59.7297 220.829 60.6017C220.829 60.8197 221.162 57.1777 220.961 58.1437V58.1437ZM219.996 97.2247C219.782 97.2037 219.568 95.9517 218.53 97.1057C218.696 98.5027 219.248 97.1437 219.996 97.2247ZM217.239 48.7377C217.931 51.9607 218.491 52.5107 219.876 53.7717C219.282 52.0497 218.974 51.6947 218.747 50.6267C217.662 49.7857 218.598 49.2127 217.239 48.7377V48.7377ZM215.859 68.5247C214.803 68.7207 214.919 68.7077 215.859 68.5247V68.5247ZM220.795 102.806C224.043 102.007 226.996 102.404 229.983 104.062C228.56 101.772 226.628 99.6607 224.941 98.5357C222.065 97.4677 220.689 96.6937 218.031 98.7537C220.44 100.824 219.927 101.136 220.795 102.806V102.806ZM214.389 67.0417C217.398 67.9257 223.162 66.2847 219.304 61.0377C219.009 64.0077 217.902 63.8837 217.099 65.8837C216.269 66.4737 215.29 65.7977 214.389 67.0417V67.0417ZM207.842 104.157C209.218 103.247 208.449 103.755 207.842 104.157V104.157ZM214.021 70.2377C214.884 69.3277 213.876 68.5837 214.081 67.6697C213.773 69.0627 212.397 68.8107 214.021 70.2377ZM208.025 100.229C209.029 100.499 208.649 99.3187 209.384 98.8187C210.251 99.3657 208.961 100.379 210.666 100.357C209.901 98.4337 210.512 98.3527 210.61 96.7927C209.02 96.2157 210.054 96.7457 209.029 95.3997C207.829 96.2247 207.269 98.0717 208.025 100.229V100.229ZM210.974 104.221C211.321 102.729 210.927 104.46 210.974 104.221V104.221ZM215.513 98.5667C215.526 98.5667 215.526 98.5667 215.526 98.5667C215.782 98.8277 215.697 98.7417 215.513 98.5667ZM210.115 102.93C208.41 102.977 208.098 102.99 210.115 102.93V102.93ZM212.017 95.2587C210.936 94.7627 209.931 94.8357 209.166 95.3017C210.278 95.7937 210.88 95.2207 212.017 95.2587ZM130.056 59.8667C129.629 61.0587 129.479 61.4857 130.056 59.8667V59.8667ZM133.385 64.8067C133.744 63.9557 133.586 64.3537 133.385 64.8067V64.8067ZM129.295 61.7897C129.689 62.4477 130.543 63.8407 129.295 61.7897V61.7897ZM129.565 44.7727C131.219 45.3917 129.219 44.6447 129.565 44.7727V44.7727ZM233.252 31.4307C229.085 30.4007 226.957 32.1787 223.072 31.6737C219.555 31.2127 215.106 28.1097 211.594 27.9257C207.744 27.7247 205.876 29.6777 200.91 28.5917C200.833 26.5707 192.307 25.4337 187.773 27.4417C195.508 22.9117 184.799 20.4637 183.91 23.2067C180.277 23.3097 175.915 23.3267 175.867 26.5187C172.781 27.6637 171.624 26.7407 174.209 30.3267C173.466 30.0617 171.508 28.7157 171.017 28.3527C170.119 28.1387 171.201 29.9937 171.081 30.0067C169.807 29.0237 169.748 28.7717 168.867 27.4937C168.311 30.7507 170.136 32.4767 172.615 34.1857C169.363 33.7367 170.119 33.3437 166.974 35.1687C172.769 28.9507 160.589 23.7927 165.927 33.0157C162.555 31.3707 162.495 31.8917 160.829 32.8957C158.376 32.2037 155.727 32.9557 152.487 34.8617C151.701 33.1867 151.812 33.7637 150.393 33.0157C150.513 33.8017 150.979 35.1997 151.252 35.8997C148.291 36.7207 149.966 35.7457 148.671 37.8657C148.551 37.9257 147.214 37.1647 146.585 37.0667C146.987 37.0627 147.064 38.2937 146.965 38.5367C145.713 37.3997 145.452 36.5237 144.803 35.0447C146.602 35.1347 147.611 34.4377 148.807 34.3137C146.585 33.0277 145.14 32.1557 142.983 32.0237C142.085 29.3737 139.051 30.5447 137.363 30.1007C137.265 30.5917 136.927 30.8527 136.385 30.8277C134.919 35.3577 124.859 38.4167 127.415 44.7117C130.928 44.8097 131.159 44.3317 132.826 47.4597C134.702 45.3447 134.475 44.4217 134.288 43.1047C134.831 40.7157 136.254 35.4217 139.818 37.2797C136.228 39.0107 136.19 42.4377 140.929 41.9547C141.164 42.3267 141.399 42.6897 141.652 43.0577C137.737 43.9467 140.447 43.7887 139.169 45.3527C138.485 45.5577 138.058 45.2927 137.87 44.5577C136.972 49.2877 129.896 51.1897 130.058 45.2587C129.378 47.7717 128.793 49.2077 127.263 52.1607C124.737 51.9857 122.925 53.1177 120.532 54.3957C120.536 54.5667 120.524 54.7337 120.498 54.8917C125.84 59.8107 118.443 58.1437 117.665 60.4727C116.452 64.0407 117.528 65.7977 120.49 65.4517C125.473 64.8537 129.37 52.0587 134.234 64.0417C134.704 63.7387 136.17 62.6697 136.255 62.5677C133.704 60.8197 133.114 58.7467 132.345 56.7557C134.905 59.1057 136.7 61.3197 138.559 63.6787C138.628 63.9397 137.747 63.7127 137.738 64.0467C138.174 64.0767 138.315 64.2947 138.166 64.7217C138.149 64.8027 139.974 64.0847 140.068 64.0417C139.829 63.1097 139.081 63.0717 138.871 62.3577C139.875 62.2207 140.722 61.6527 142.046 61.2597C141.632 60.7547 141.127 60.6357 140.567 60.8747C142.067 59.2247 142.871 58.0287 144.084 55.8577C144.819 55.7637 148.251 55.6697 149.541 55.7977C149.498 56.8487 151.08 61.4127 150.562 61.4297C147.985 61.5407 144.853 59.2547 142.263 61.3057C138.9 63.9557 144.746 66.2847 147.887 65.6647C148.062 66.9037 147.801 70.0367 147.331 71.2507C144.763 69.7037 143.677 70.3357 140.733 70.1527C140.742 70.9477 140.708 71.7727 140.673 72.5967C140.434 69.3827 139.648 67.2547 136.96 70.8017C129.614 69.7037 129.648 61.0537 120.144 66.6567C114.23 70.1437 113.935 77.4897 111.029 83.9857C112.14 86.2767 114.204 89.0117 116.542 91.7547C119.2 94.8617 126.029 89.4937 130.144 93.2677C130.2 93.3187 132.144 101.533 132.225 102.439C132.686 107.43 131.443 112.858 133.772 118.546C137.904 128.653 147.691 122.64 148.067 113.118C148.165 110.469 151.635 110.631 152.029 108.734C152.678 105.571 150.555 102.499 151.315 100.05C152.964 94.8487 160.55 91.9047 158.87 86.1777C151.738 90.8397 147.661 76.2807 145.678 71.3747C151.593 75.0927 150.563 88.4167 159.845 83.5927C170.768 77.9387 159.012 77.1787 156.11 71.2547C156.482 71.5367 157.546 71.1567 157.764 70.9597C159.982 73.8917 172.426 78.1727 173.785 77.6387C174.311 81.8007 175.991 85.8017 177.772 89.4887C180.293 84.2027 182.874 80.2197 186.926 76.4157C187.824 78.7067 189.11 79.9627 189.686 82.6767C190.268 82.5997 190.956 81.9077 191.276 81.8777C192.229 86.0657 193.468 92.3727 197.306 94.5187C196.947 90.8947 195.067 88.7967 194.469 85.5017C195.661 87.4287 196.713 87.0017 197.537 89.2457C203.182 85.6387 197.191 82.1817 199.315 78.0107C209.345 82.2667 205.576 67.0617 207.174 64.1387C204.422 62.8567 203.512 64.7417 206.136 61.5577C206.307 62.1007 206.384 62.6517 206.384 63.2157C207.384 62.8477 208.029 62.0917 209.067 62.4767C209.268 64.2627 210.666 65.7207 211.285 67.6307C211.499 65.0497 212.11 65.8617 210.178 62.6007C212.058 59.9507 214.361 59.9897 216.037 56.5027C218.341 51.7337 213.853 48.8487 213.858 48.7377C214.307 43.8527 224.165 40.5367 228.23 40.2677C226.401 43.3567 224.285 47.7757 227.798 51.3097C231.148 47.5877 227.067 40.6177 233.507 42.7847C234.071 40.1867 235.246 41.1477 236.879 39.7117C236.956 40.0837 238.529 39.2547 235.96 37.5617C236.46 36.4937 237.498 35.9037 237.802 35.0447C239.178 36.7667 240.417 36.6687 242.157 38.1727C242.511 37.6167 243.379 36.0437 243.576 35.1047C239.076 35.0287 237.995 32.5927 233.252 31.4307V31.4307ZM215.513 98.5667C215.094 98.1867 214.111 97.2927 215.513 98.5667V98.5667ZM230.231 99.3277C229.885 100.238 227.868 100.217 229.731 100.802C231.466 99.8787 230.235 99.3187 230.231 99.3277ZM213.372 94.9467C213.987 96.8617 214.821 95.3397 214.534 95.1347C213.821 94.6437 214.68 92.6357 213.372 94.9467ZM239.252 112.652C239.453 112.986 240.846 115.247 239.252 112.652V112.652ZM231.111 98.0797C231.547 97.9647 231.889 99.9557 231.974 97.8407C230.175 96.5197 231.034 98.1007 231.111 98.0797ZM202.141 98.6397C207.132 100.563 208.269 92.8107 206.577 90.7547C205.389 91.7847 196.556 96.4767 202.141 98.6397ZM153.436 114.832C155.325 121.64 158.855 108.538 158.535 105.845C156.846 107.182 152.436 111.204 153.436 114.832ZM114.462 35.5027C111.752 35.2847 109.859 35.4727 108.206 36.4777C109.069 37.5717 108.552 37.2597 109.189 38.4387C110.714 37.8317 110.706 38.6527 111.766 39.1867C113.548 38.0077 114.749 37.9647 114.462 35.5027ZM208.889 95.1997C208.953 95.2727 208.987 95.3237 209.03 95.4007C209.077 95.3667 209.111 95.3197 209.167 95.3027C209.064 95.2587 208.996 95.2587 208.889 95.1997V95.1997ZM190.423 91.6997C193.038 94.2767 195.769 101.127 198.397 99.3157C197.244 96.1817 194.137 92.5537 190.423 91.6997ZM107.048 30.2847C108.689 30.0707 107.659 29.6097 110.108 30.4047C109.762 29.7677 109.249 27.9047 108.762 27.0887C112.031 27.0497 112.779 24.6697 112.813 22.4217C111.638 21.2417 112.313 21.9727 110.6 21.0797C111.027 19.6487 111.903 19.6347 112.813 18.6177C112.394 18.4167 111.989 18.2117 111.582 18.0067C113.373 17.4847 114.821 16.5617 116.492 15.9207C113.659 16.4427 112.389 15.9417 109.62 17.2757C109.983 16.6177 110.36 15.9677 110.723 15.3017C107.637 15.7207 108.215 15.0877 104.338 15.4257C106.436 15.0067 108.483 14.3447 110.599 13.9517C108.411 13.8707 106.778 13.5327 104.338 13.8327C105.112 13.5077 105.894 13.1787 106.68 12.8457C103.317 13.3417 100.727 13.5677 97.9624 13.5807C98.0604 14.3197 97.9324 15.0117 97.5864 15.6747C91.9964 14.8757 87.9284 16.2217 81.3854 21.4437C81.7614 21.6017 84.2654 22.0207 84.4454 22.0547C83.7364 22.2637 82.9924 22.3797 82.2404 22.4227C89.0264 23.1277 89.3384 26.8967 91.9964 30.2517C91.5734 30.4057 91.1504 30.5467 90.7444 30.6917C90.8854 30.9697 90.9534 31.4487 91.0044 32.0467C91.2864 35.3287 90.7524 42.4187 95.9914 42.4357C96.1324 42.4357 99.2174 36.4107 101.384 35.9317C103.935 35.3637 106.974 32.5517 109.739 30.8977C108.821 30.6657 107.975 30.3967 107.048 30.2847ZM199.252 98.0797C197.97 96.8707 197.88 96.7937 199.252 98.0797V98.0797ZM91.0054 32.0457C89.6724 32.0677 89.8434 32.0677 91.0054 32.0457V32.0457ZM204.778 102.195C202.94 101.195 200.752 100.357 198.158 101.336C200.308 102.644 202.739 102.704 204.778 102.195ZM72.9674 81.8707C74.0404 81.4947 75.5274 81.8967 76.5014 81.4947C73.3304 79.5967 73.3524 80.8747 72.9674 81.8707ZM77.0224 81.6567C78.3224 81.7077 78.4114 81.7077 77.0224 81.6567V81.6567ZM65.0144 78.5287C68.1684 79.0837 70.1124 79.5417 72.2534 80.1867C69.6644 78.4517 67.9074 77.1647 65.0144 78.5287ZM69.2234 81.7507C70.7924 81.6137 71.2884 81.5667 69.2234 81.7507V81.7507ZM180.962 91.0237C181.381 89.4167 180.244 89.3187 180.039 88.2547C180.312 89.7337 178.415 90.9777 180.962 91.0237ZM209.662 86.9937C210.697 86.8447 210.709 86.8447 209.662 86.9937V86.9937ZM209.974 84.7547C211.124 85.4857 211.868 85.9557 209.974 84.7547V84.7547ZM210.457 89.2637C210.893 89.2637 208.188 89.2937 210.457 89.2637V89.2637ZM200.299 81.6007C201.5 79.7757 200.107 80.1697 200.051 80.0027C200.282 80.7077 198.671 81.3877 200.299 81.6007ZM209.363 85.8277C208.483 83.2127 209.658 86.7377 209.363 85.8277V85.8277ZM212.299 86.6867C211.175 86.2977 211.846 86.5327 212.299 86.6867V86.6867ZM210.709 89.4517C210.991 89.4947 211.923 91.0887 212.179 91.3537C214.038 87.6307 212.197 89.7167 210.709 89.4517ZM206.923 102.567C207.611 102.763 207.842 102.832 206.923 102.567V102.567ZM86.4674 52.4687C86.8564 52.5117 86.5654 52.4817 86.4674 52.4687V52.4687ZM209.85 84.0457C209.722 83.6697 209.427 82.3317 209.726 81.8957C208.568 82.3107 206.303 82.0327 209.85 84.0457ZM224.214 104.311C224.141 110.307 219.774 111.106 220.227 105.657C219.091 105.123 217.373 105.059 216.176 104.734C216.116 105.093 217.133 105.572 216.787 105.905C213.954 107.409 211.791 108.289 209.539 109.281C208.304 111.858 202.415 113.337 202.578 115.332C202.74 117.392 203.296 118.828 203.441 122.135C203.774 130.002 213.154 117.46 216.484 124.861C216.672 124.695 218.317 123.152 218.441 123.088C218.21 123.819 218.518 124.246 217.826 124.925C218.254 125.54 218.638 124.489 218.749 124.245C220.313 133.835 233.305 122.933 229.488 115.472C226.915 112.413 225.5 108.08 224.214 104.311V104.311Z" fill="#DEE4E7"/>
<path d="M33.3824 158.759C35.2324 158.759 36.8134 158.071 38.1084 156.674C39.3864 155.293 40.2714 153.725 40.7324 151.99C41.2064 150.268 41.4204 148.823 41.4204 147.631C41.4204 144.896 40.8434 142.857 39.6424 141.507C38.4754 140.182 37.0274 139.498 35.3134 139.498C32.7404 139.498 30.7234 140.69 29.2624 143.088C27.8134 145.464 27.0874 148.015 27.0874 150.75C27.0874 152.925 27.6084 154.793 28.6434 156.361C29.7024 157.943 31.2624 158.759 33.3824 158.759ZM31.4594 145.34C32.2334 143.127 33.4514 141.99 35.0534 141.99C36.0704 141.99 36.8784 142.353 37.4334 143.127C38.0234 143.879 38.3224 144.96 38.3224 146.392C38.3224 148.387 37.9164 150.524 37.1344 152.798C36.3524 155.089 35.1174 156.251 33.4074 156.251C32.4294 156.251 31.6554 155.854 31.0914 155.067C30.5274 154.285 30.2704 153.208 30.2704 151.776C30.2714 149.733 30.6514 147.575 31.4594 145.34ZM45.3354 143.088C43.8904 145.464 43.1644 148.015 43.1644 150.75C43.1644 152.925 43.6694 154.793 44.7204 156.361C45.7754 157.942 47.3394 158.758 49.4594 158.758C51.2964 158.758 52.8784 158.07 54.1774 156.673C55.4504 155.292 56.3484 153.724 56.7934 151.989C57.2764 150.267 57.4904 148.822 57.4904 147.63C57.4904 144.895 56.9044 142.856 55.7084 141.506C54.5464 140.181 53.0974 139.497 51.3884 139.497C48.8054 139.499 46.7924 140.691 45.3354 143.088V143.088ZM51.1294 141.99C52.1424 141.99 52.9414 142.353 53.5104 143.127C54.0914 143.879 54.3904 144.96 54.3904 146.392C54.3904 148.387 53.9844 150.524 53.2024 152.798C52.4284 155.089 51.1854 156.251 49.4754 156.251C48.5054 156.251 47.7234 155.854 47.1634 155.067C46.5954 154.285 46.3344 153.208 46.3344 151.776C46.3344 149.733 46.7274 147.575 47.5184 145.34C48.3094 143.127 49.5194 141.99 51.1294 141.99V141.99ZM67.4714 139.499C64.8944 139.499 62.8864 140.691 61.4154 143.089C59.9584 145.465 59.2274 148.016 59.2274 150.751C59.2274 152.926 59.7354 154.794 60.8044 156.362C61.8464 157.943 63.4284 158.759 65.5484 158.759C67.3894 158.759 68.9674 158.071 70.2444 156.674C71.5434 155.293 72.4404 153.725 72.8854 151.99C73.3684 150.268 73.5864 148.823 73.5864 147.631C73.5864 144.896 72.9964 142.857 71.8084 141.507C70.6124 140.182 69.1894 139.499 67.4714 139.499V139.499ZM69.2964 152.797C68.5224 155.088 67.2874 156.25 65.5694 156.25C64.5784 156.25 63.8174 155.853 63.2574 155.066C62.6894 154.284 62.4024 153.207 62.4024 151.775C62.4024 149.732 62.8164 147.574 63.5944 145.339C64.4064 143.126 65.5944 141.989 67.1964 141.989C68.2134 141.989 69.0084 142.352 69.6024 143.126C70.1834 143.878 70.4654 144.959 70.4654 146.391C70.4674 148.387 70.0704 150.524 69.2964 152.797ZM83.5484 139.499C80.9674 139.499 78.9634 140.691 77.5014 143.089C76.0524 145.465 75.3134 148.016 75.3134 150.751C75.3134 152.926 75.8394 154.794 76.8774 156.362C77.9324 157.943 79.4934 158.759 81.6214 158.759C83.4544 158.759 85.0444 158.071 86.3434 156.674C87.6124 155.293 88.5014 153.725 88.9624 151.99C89.4414 150.268 89.6594 148.823 89.6594 147.631C89.6594 144.896 89.0704 142.857 87.8814 141.507C86.7154 140.182 85.2584 139.499 83.5484 139.499V139.499ZM85.3684 152.797C84.5864 155.088 83.3434 156.25 81.6424 156.25C80.6644 156.25 79.8854 155.853 79.3174 155.066C78.7664 154.284 78.4974 153.207 78.4974 151.775C78.4974 149.732 78.8954 147.574 79.6944 145.339C80.4674 143.126 81.6894 141.989 83.2844 141.989C84.3104 141.989 85.1044 142.352 85.6734 143.126C86.2544 143.878 86.5624 144.959 86.5624 146.391C86.5614 148.387 86.1424 150.524 85.3684 152.797V152.797ZM100.415 143.088C98.9674 145.464 98.2574 148.015 98.2574 150.75C98.2574 152.925 98.7744 154.793 99.8124 156.361C100.847 157.942 102.428 158.758 104.551 158.758C106.402 158.758 107.957 158.07 109.26 156.673C110.55 155.292 111.414 153.724 111.897 151.989C112.35 150.267 112.59 148.822 112.59 147.63C112.59 144.895 112.008 142.856 110.812 141.506C109.62 140.181 108.171 139.497 106.483 139.497C103.911 139.499 101.869 140.691 100.415 143.088V143.088ZM106.197 141.99C107.218 141.99 108.022 142.353 108.603 143.127C109.193 143.879 109.475 144.96 109.475 146.392C109.475 148.387 109.086 150.524 108.296 152.798C107.522 155.089 106.292 156.251 104.574 156.251C103.583 156.251 102.796 155.854 102.262 155.067C101.689 154.285 101.424 153.208 101.424 151.776C101.424 149.733 101.804 147.575 102.603 145.34C103.407 143.127 104.595 141.99 106.197 141.99ZM120.629 158.759C122.479 158.759 124.022 158.071 125.321 156.674C126.625 155.293 127.496 153.725 127.975 151.99C128.428 150.268 128.667 148.823 128.667 147.631C128.667 144.896 128.081 142.857 126.889 141.507C125.697 140.182 124.24 139.498 122.56 139.498C119.97 139.498 117.936 140.69 116.492 143.088C115.034 145.464 114.325 148.015 114.325 150.75C114.325 152.925 114.838 154.793 115.889 156.361C116.928 157.943 118.514 158.759 120.629 158.759ZM118.684 145.34C119.475 143.127 120.663 141.99 122.274 141.99C123.287 141.99 124.086 142.353 124.684 143.127C125.261 143.879 125.543 144.96 125.543 146.392C125.543 148.387 125.154 150.524 124.376 152.798C123.59 155.089 122.367 156.251 120.645 156.251C119.658 156.251 118.867 155.854 118.333 155.067C117.768 154.285 117.478 153.208 117.478 151.776C117.479 149.733 117.881 147.575 118.684 145.34ZM136.697 158.759C138.535 158.759 140.095 158.071 141.398 156.674C142.697 155.293 143.56 153.725 144.039 151.99C144.5 150.268 144.736 148.823 144.736 147.631C144.736 144.896 144.142 142.857 142.958 141.507C141.77 140.182 140.313 139.498 138.616 139.498C136.043 139.498 134.009 140.69 132.557 143.088C131.112 145.464 130.39 148.015 130.39 150.75C130.39 152.925 130.916 154.793 131.95 156.361C132.992 157.943 134.569 158.759 136.697 158.759V158.759ZM134.748 145.34C135.56 143.127 136.748 141.99 138.351 141.99C139.368 141.99 140.163 142.353 140.753 143.127C141.33 143.879 141.62 144.96 141.62 146.392C141.62 148.387 141.218 150.524 140.449 152.798C139.675 155.089 138.432 156.251 136.722 156.251C135.722 156.251 134.944 155.854 134.401 155.067C133.841 154.285 133.551 153.208 133.551 151.776C133.552 149.733 133.945 147.575 134.748 145.34ZM154.693 139.499C152.125 139.499 150.116 140.691 148.651 143.089C147.189 145.465 146.467 148.016 146.467 150.751C146.467 152.926 146.988 154.794 148.027 156.362C149.057 157.943 150.647 158.759 152.775 158.759C154.612 158.759 156.198 158.071 157.467 156.674C158.766 155.293 159.655 153.725 160.117 151.99C160.591 150.268 160.801 148.823 160.801 147.631C160.801 144.896 160.224 142.857 159.036 141.507C157.842 140.182 156.411 139.499 154.693 139.499ZM156.522 152.797C155.74 155.088 154.496 156.25 152.8 156.25C151.796 156.25 151.031 155.853 150.471 155.066C149.915 154.284 149.633 153.207 149.633 151.775C149.633 149.732 150.039 147.574 150.817 145.339C151.62 143.126 152.809 141.989 154.419 141.989C155.432 141.989 156.24 142.352 156.829 143.126C157.406 143.878 157.68 144.959 157.68 146.391C157.68 148.387 157.299 150.524 156.522 152.797ZM177.607 139.499C175.039 139.499 173.021 140.691 171.56 143.089C170.112 145.465 169.381 148.016 169.381 150.751C169.381 152.926 169.898 154.794 170.958 156.362C172.005 157.943 173.582 158.759 175.68 158.759C177.548 158.759 179.103 158.071 180.407 156.674C181.715 155.293 182.574 153.725 183.052 151.99C183.505 150.268 183.744 148.823 183.744 147.631C183.744 144.896 183.133 142.857 181.966 141.507C180.774 140.182 179.325 139.499 177.607 139.499V139.499ZM179.453 152.797C178.671 155.088 177.423 156.25 175.722 156.25C174.735 156.25 173.953 155.853 173.393 155.066C172.85 154.284 172.568 153.207 172.568 151.775C172.568 149.732 172.957 147.574 173.76 145.339C174.529 143.126 175.747 141.989 177.35 141.989C178.371 141.989 179.175 142.352 179.752 143.126C180.325 143.878 180.624 144.959 180.624 146.391C180.624 148.387 180.239 150.524 179.453 152.797ZM193.701 139.499C191.133 139.499 189.098 140.691 187.641 143.089C186.188 145.465 185.479 148.016 185.479 150.751C185.479 152.926 185.992 154.794 187.035 156.362C188.078 157.943 189.654 158.759 191.774 158.759C193.611 158.759 195.171 158.071 196.466 156.674C197.765 155.293 198.646 153.725 199.116 151.99C199.578 150.268 199.817 148.823 199.817 147.631C199.817 144.896 199.218 142.857 198.035 141.507C196.842 140.182 195.389 139.499 193.701 139.499ZM195.517 152.797C194.752 155.088 193.517 156.25 191.799 156.25C190.808 156.25 190.021 155.853 189.487 155.066C188.919 154.284 188.628 153.207 188.628 151.775C188.628 149.732 189.03 147.574 189.825 145.339C190.624 143.126 191.825 141.989 193.427 141.989C194.436 141.989 195.239 142.352 195.825 143.126C196.414 143.878 196.688 144.959 196.688 146.391C196.688 148.387 196.303 150.524 195.517 152.797ZM209.769 139.499C207.201 139.499 205.162 140.691 203.705 143.089C202.257 145.465 201.547 148.016 201.547 150.751C201.547 152.926 202.06 154.794 203.107 156.362C204.141 157.943 205.714 158.759 207.846 158.759C209.688 158.759 211.252 158.071 212.543 156.674C213.842 155.293 214.714 153.725 215.184 151.99C215.637 150.268 215.881 148.823 215.881 147.631C215.881 144.896 215.304 142.857 214.103 141.507C212.91 140.182 211.47 139.499 209.769 139.499V139.499ZM211.594 152.797C210.82 155.088 209.577 156.25 207.876 156.25C206.863 156.25 206.09 155.853 205.551 155.066C204.987 154.284 204.709 153.207 204.709 151.775C204.709 149.732 205.094 147.574 205.901 145.339C206.7 143.126 207.893 141.989 209.495 141.989C210.508 141.989 211.307 142.352 211.905 143.126C212.473 143.878 212.755 144.959 212.755 146.391C212.756 148.387 212.367 150.524 211.594 152.797V152.797ZM225.838 139.499C223.265 139.499 221.231 140.691 219.786 143.089C218.333 145.465 217.611 148.016 217.611 150.751C217.611 152.926 218.128 154.794 219.179 156.362C220.209 157.943 221.79 158.759 223.927 158.759C225.752 158.759 227.325 158.071 228.611 156.674C229.91 155.293 230.782 153.725 231.256 151.99C231.713 150.268 231.957 148.823 231.957 147.631C231.957 144.896 231.371 142.857 230.183 141.507C228.987 140.182 227.534 139.499 225.838 139.499V139.499ZM227.662 152.797C226.889 155.088 225.654 156.25 223.94 156.25C222.94 156.25 222.162 155.853 221.615 155.066C221.055 154.284 220.773 153.207 220.773 151.775C220.773 149.732 221.175 147.574 221.965 145.339C222.768 143.126 223.96 141.989 225.563 141.989C226.58 141.989 227.379 142.352 227.969 143.126C228.55 143.878 228.832 144.959 228.832 146.391C228.833 148.387 228.448 150.524 227.662 152.797V152.797Z" fill="#7E848B"/>
</svg>
