<svg width="2280" height="1259" viewBox="0 0 2280 1259" fill="none" xmlns="http://www.w3.org/2000/svg">
<path fill-rule="evenodd" clip-rule="evenodd" d="M165.4 1258.7C630.703 1059.29 1283.59 878.542 2148.28 1059.52L2157.35 840.204C1245.06 740.596 590.445 1031.16 165.4 1237.08V1258.7V1258.7Z" fill="#E7A83A"/>
<path fill-rule="evenodd" clip-rule="evenodd" d="M651.974 680.377L853.641 15.4303H1033.58L831.903 680.377H651.974ZM571.535 15.6119L409.673 297.484C368.468 371.308 344.383 408.596 332.801 455.248H330.337C333.203 396.106 324.954 323.501 324.176 282.465L306.304 15.6119H3.40767L0.294922 33.4972C78.1135 33.4972 124.26 72.5881 136.957 152.547L195.996 680.377H382.41L759.337 15.6119H571.535ZM1970.86 680.377L1965.89 581.483L1741.2 581.301L1695.25 680.364H1499.9L1854.12 16.6884H2093.9L2153.89 680.364H1970.86V680.377V680.377ZM1950.22 288.146C1948.22 239.003 1946.55 172.3 1949.9 131.938H1947.24C1936.29 164.946 1889.25 264.074 1868.56 312.827L1801.61 458.581H1959.38L1950.22 288.146V288.146ZM1222.49 699.274C1095.45 699.274 1011.15 658.977 950.953 623.051L1036.67 492.147C1090.7 522.367 1133.13 557.242 1230.74 557.242C1262.12 557.242 1292.37 549.084 1309.54 519.345C1334.57 476.09 1303.77 452.823 1233.47 413.031L1198.77 390.464C1094.57 319.26 1049.5 251.636 1098.55 133.585C1129.94 58.0749 1212.72 0.839355 1349.29 0.839355C1443.48 0.839355 1531.78 41.5774 1583.23 81.3816L1484.68 196.955C1434.48 156.347 1392.86 135.803 1345.23 135.803C1307.26 135.803 1278.41 150.446 1268.45 170.199C1249.71 207.331 1274.51 232.648 1329.27 266.642L1370.54 292.892C1497.04 372.682 1527.19 456.35 1495.48 534.571C1440.95 669.21 1334.18 699.274 1222.49 699.274V699.274ZM2203.11 118.281H2191.25V46.1946H2218.6C2236.01 46.1946 2244.89 52.2904 2244.89 66.9203C2244.89 79.9679 2236.87 85.3633 2226.08 86.5825L2246.27 118.281H2232.87L2214.25 87.4644H2203.11V118.281ZM2216.32 77.3609C2225.22 77.3609 2233.04 76.492 2233.04 66.0384C2233.04 57.3357 2224.51 56.2851 2217.39 56.2851H2203.09V77.3609H2216.32ZM2215.97 146.14C2178.55 146.14 2151.91 118.112 2151.91 81.0184C2151.91 41.8368 2181.5 15.8972 2215.97 15.8972C2250.12 15.8972 2279.71 41.8368 2279.71 81.0184C2279.71 120.187 2250.12 146.14 2215.97 146.14ZM2215.97 27.2199C2187.78 27.2199 2165.84 49.3203 2165.84 81.0184C2165.84 110.615 2185 134.817 2215.97 134.817C2243.83 134.817 2265.78 112.885 2265.78 81.0184C2265.78 49.3203 2243.83 27.2199 2215.97 27.2199Z" fill="#1D5B99"/>
</svg>
